<?xml version="1.0" encoding="utf-8"?>
<!-- Generator: Adobe Illustrator 24.1.1, SVG Export Plug-In . SVG Version: 6.00 Build 0)  -->
<svg version="1.1" id="Layer_1" xmlns="http://www.w3.org/2000/svg" xmlns:xlink="http://www.w3.org/1999/xlink" x="0px" y="0px"
	 viewBox="0 0 512 512" style="enable-background:new 0 0 512 512;" xml:space="preserve">
<g>
	<path d="M2.4,378.9h42.3V198.7H2.4V378.9z M23.5,175.1c13.3,0,23.6-10.2,23.6-23c0-12.9-10.4-23.1-23.6-23.1
		C10.4,129,0,139.2,0,152.1C0,164.9,10.4,175.1,23.5,175.1z M185.7,129.5c-71.6,0-116.5,48.8-116.5,126.8
		c0,78,44.9,126.7,116.5,126.7c71.4,0,116.3-48.6,116.3-126.7C302,178.3,257.1,129.5,185.7,129.5z M185.7,166.9
		c43.7,0,71.6,34.7,71.6,89.4c0,54.6-27.9,89.3-71.6,89.3c-43.9,0-71.6-34.7-71.6-89.3C114.1,201.6,141.8,166.9,185.7,166.9z
		 M319.9,309.9c1.9,45.2,38.9,73.1,95.4,73.1c59.3,0,96.8-29.2,96.8-75.8c0-36.6-21.1-57.1-70.9-68.5l-28.2-6.5
		c-30.1-7.1-42.5-16.7-42.5-33c0-20.4,18.7-34,46.4-34c28.1,0,47.3,13.8,49.3,36.7h41.8c-1-43.2-36.7-72.4-90.8-72.4
		c-53.4,0-91.3,29.4-91.3,72.9c0,35,21.4,56.8,66.7,67.2l31.8,7.5c30.9,7.3,43.5,17.5,43.5,35.2c0,20.4-20.6,35-50.2,35
		c-29.9,0-52.5-14.8-55.3-37.4H319.9L319.9,309.9z"/>
</g>
</svg>
