<?xml version="1.0" encoding="UTF-8" standalone="no"?>
<!-- Created with Inkscape (http://www.inkscape.org/) -->

<svg
   xmlns:dc="http://purl.org/dc/elements/1.1/"
   xmlns:cc="http://creativecommons.org/ns#"
   xmlns:rdf="http://www.w3.org/1999/02/22-rdf-syntax-ns#"
   xmlns:svg="http://www.w3.org/2000/svg"
   xmlns="http://www.w3.org/2000/svg"
   xmlns:sodipodi="http://sodipodi.sourceforge.net/DTD/sodipodi-0.dtd"
   xmlns:inkscape="http://www.inkscape.org/namespaces/inkscape"
   width="302"
   height="134.5"
   viewBox="0 0 302 134.5"
   id="svg9276"
   version="1.1"
   inkscape:version="0.91 r13725"
   sodipodi:docname="vend.svg">
  <defs
     id="defs9278" />
  <sodipodi:namedview
     id="base"
     pagecolor="#ffffff"
     bordercolor="#666666"
     borderopacity="1.0"
     inkscape:pageopacity="0.0"
     inkscape:pageshadow="2"
     inkscape:zoom="0.35"
     inkscape:cx="22.142857"
     inkscape:cy="520"
     inkscape:document-units="px"
     inkscape:current-layer="layer1"
     showgrid="false"
     units="px"
     inkscape:window-width="1280"
     inkscape:window-height="744"
     inkscape:window-x="-4"
     inkscape:window-y="-4"
     inkscape:window-maximized="1" />
  <metadata
     id="metadata9281">
    <rdf:RDF>
      <cc:Work
         rdf:about="">
        <dc:format>image/svg+xml</dc:format>
        <dc:type
           rdf:resource="http://purl.org/dc/dcmitype/StillImage" />
        <dc:title></dc:title>
      </cc:Work>
    </rdf:RDF>
  </metadata>
  <g
     inkscape:label="Layer 1"
     inkscape:groupmode="layer"
     id="layer1"
     transform="translate(0,-917.86216)">
    <g
       id="g9329"
       transform="translate(-168.19628,150.68566)">
      <path
         d="m 424.54653,768.18722 -242.53411,0 c -7.07764,0 -12.81615,5.74017 -12.81615,12.82051 l 0,106.83754 c 0,7.08032 5.73851,12.8205 12.81615,12.8205 l 242.53411,0 c 4.79487,0 9.18888,-2.67761 11.38888,-6.9401 l 31.83332,-53.41875 c 1.90341,-3.68889 1.90341,-8.07196 0,-11.76085 l -31.83332,-53.41868 c -2.2,-4.26239 -6.59401,-6.94017 -11.38888,-6.94017"
         style="fill:#40ba58;fill-opacity:1;fill-rule:nonzero;stroke:none"
         id="path9296"
         inkscape:connector-curvature="0" />
      <path
         d="m 447.82857,834.4265 c 0,3.54034 -2.87009,6.41025 -6.41025,6.41025 -3.54017,0 -6.41026,-2.86991 -6.41026,-6.41025 0,-3.54034 2.87009,-6.41026 6.41026,-6.41026 3.54016,0 6.41025,2.86992 6.41025,6.41026"
         style="fill:#ffffff;fill-opacity:1;fill-rule:nonzero;stroke:none"
         id="path9298"
         inkscape:connector-curvature="0" />
      <path
         d="m 231.96435,820.83975 9.46042,0 c 0.63171,0 1.04538,0.66077 0.76855,1.22829 l -24.54187,50.46544 c -0.46675,0.95949 -1.83495,0.96154 -2.30436,0.002 l -24.69485,-50.46604 c -0.27778,-0.5676 0.13521,-1.23 0.76761,-1.23 l 9.47281,0 c 0.33316,0 0.63564,0.19402 0.7759,0.4965 l 14.83674,32.15143 14.6811,-32.14878 c 0.13923,-0.30419 0.44376,-0.49915 0.77795,-0.49915"
         style="fill:#ffffff;fill-opacity:1;fill-rule:nonzero;stroke:none"
         id="path9300"
         inkscape:connector-curvature="0" />
      <path
         d="m 286.88081,856.54187 6.38632,3.71529 c 0.41795,0.24368 0.55641,0.79223 0.29658,1.20026 -5.7094,8.95965 -13.77093,13.44016 -24.18631,13.44016 -7.61965,0 -13.77007,-2.75572 -18.45041,-8.26692 -4.57197,-5.36555 -6.85829,-12.56238 -6.85829,-21.59015 0,-3.18983 0.68974,-6.54384 2.06863,-10.06077 2.53906,-6.48905 6.80324,-11.00366 12.79051,-13.54204 3.1564,-1.34077 6.64016,-2.01188 10.44956,-2.01188 10.95726,0 18.32307,4.60504 22.09742,13.81375 1.77693,4.31462 2.59316,8.4288 2.44872,12.34444 l -0.0795,2.27496 c -0.0162,0.46077 -0.39401,0.82495 -0.8547,0.82495 l -38.63356,0 c 0,4.93162 1.43273,9.02812 4.2994,12.29136 3.04786,3.40846 7.00256,5.11188 11.86495,5.11188 6.12991,0 12.09742,-4.00077 15.18802,-9.22478 0.24274,-0.41034 0.75983,-0.5606 1.17265,-0.32051 m -2.86239,-15.417 c -0.54445,-3.84282 -2.01453,-6.94273 -4.40855,-9.29991 -2.54102,-2.50162 -5.71538,-3.75231 -9.52478,-3.75231 -4.06495,0 -7.4564,1.16958 -10.17777,3.50795 -2.72136,2.33838 -4.42735,5.51948 -5.11623,9.54427 l 29.22733,0"
         style="fill:#ffffff;fill-opacity:1;fill-rule:nonzero;stroke:none"
         id="path9302"
         inkscape:connector-curvature="0" />
      <path
         d="m 303.97738,820.83975 8.25042,0 c 0.47265,0 0.8547,0.38299 0.8547,0.8547 l 0,6.59556 c 3.84615,-5.90915 9.23418,-8.86385 16.16495,-8.86385 12.15469,0 18.23246,7.45026 18.23246,22.3511 l 0,30.47075 c 0,0.47171 -0.38205,0.8547 -0.8547,0.8547 l -8.30512,0 c -0.47179,0 -0.8547,-0.38299 -0.8547,-0.8547 l 0,-30.68776 c 0,-4.45982 -0.78034,-7.70435 -2.34017,-9.73495 -1.77863,-2.35572 -4.82649,-3.53529 -9.14358,-3.53529 -8.59914,0 -12.89914,5.4217 -12.89914,16.26067 l 0,27.69733 c 0,0.47171 -0.38205,0.8547 -0.8547,0.8547 l -8.25042,0 c -0.4718,0 -0.8547,-0.38299 -0.8547,-0.8547 l 0,-50.55356 c 0,-0.47171 0.3829,-0.8547 0.8547,-0.8547"
         style="fill:#ffffff;fill-opacity:1;fill-rule:nonzero;stroke:none"
         id="path9304"
         inkscape:connector-curvature="0" />
      <path
         d="m 400.20723,793.70088 8.30512,0 c 0.4718,0 0.8547,0.38291 0.8547,0.8547 l 0,77.69243 c 0,0.47239 -0.3829,0.8547 -0.8547,0.8547 l -8.30512,0 c -0.47179,0 -0.8547,-0.38231 -0.8547,-0.8547 l 0,-7.62923 c -4.53589,6.85231 -10.48717,10.2788 -17.85212,10.2788 -8.20085,0 -14.60427,-3.06359 -19.21196,-9.19076 -4.06495,-5.40162 -6.09572,-11.47529 -6.09572,-18.21914 0,-5.257 1.01538,-10.00666 3.04786,-14.24845 2.24872,-4.71281 5.49658,-8.26589 9.74188,-10.65905 3.73674,-2.10265 7.76495,-3.1547 12.08289,-3.1547 3.59231,0 7.12991,0.97957 10.61282,2.93675 3.48376,1.95812 6.04187,4.49649 7.67435,7.61384 l 0,-35.42049 c 0,-0.47179 0.38291,-0.8547 0.8547,-0.8547 m -2.04273,53.56484 c 0,-7.5394 -2.61111,-12.88794 -7.83162,-16.04469 -2.55897,-1.54248 -5.46666,-2.31436 -8.72478,-2.31436 -6.69231,0 -11.38888,3.27957 -14.08632,9.83675 -1.15726,2.80615 -1.73504,5.71709 -1.73504,8.73264 0,6.2076 2.15385,11.15316 6.46495,14.83503 2.38205,2.03496 5.43077,3.0512 9.14615,3.0512 7.21795,0 12.21025,-3.13838 14.98033,-9.41606 1.1906,-2.70034 1.78633,-5.59325 1.78633,-8.68051"
         style="fill:#ffffff;fill-opacity:1;fill-rule:nonzero;stroke:none"
         id="path9306"
         inkscape:connector-curvature="0" />
    </g>
  </g>
</svg>
